<svg width="80" height="80" viewBox="0 0 80 80" fill="none" xmlns="http://www.w3.org/2000/svg">
<mask id="mask0_696_2427" style="mask-type:alpha" maskUnits="userSpaceOnUse" x="0" y="0" width="80" height="80">
<rect width="80" height="80" fill="#D9D9D9"/>
</mask>
<g mask="url(#mask0_696_2427)">
<path d="M24.9974 11.6667C27.9074 11.6667 30.6574 12.3473 33.2474 13.7084C35.8374 15.0695 38.0874 17.0215 39.9974 19.5642C41.9074 17.0215 44.1574 15.0695 46.7474 13.7084C49.3374 12.3473 52.0874 11.6667 54.9974 11.6667C59.728 11.6667 63.6885 13.2617 66.8791 16.4517C70.0691 19.6423 71.6641 23.6029 71.6641 28.3334C71.6641 28.654 71.6502 28.9637 71.6224 29.2626C71.5946 29.562 71.5699 29.872 71.5482 30.1926H66.5491C66.6046 29.872 66.6377 29.562 66.6482 29.2626C66.6588 28.9637 66.6641 28.654 66.6641 28.3334C66.6641 25.0001 65.5529 22.2223 63.3307 20.0001C61.1085 17.7779 58.3307 16.6667 54.9974 16.6667C52.3652 16.6667 49.9324 17.4134 47.6991 18.9067C45.4663 20.4006 43.6982 22.4787 42.3949 25.1409H37.5999C36.2749 22.457 34.5013 20.3737 32.2791 18.8909C30.0568 17.4081 27.6296 16.6667 24.9974 16.6667C21.6852 16.6667 18.9127 17.7779 16.6799 20.0001C14.4471 22.2223 13.3307 25.0001 13.3307 28.3334C13.3307 28.654 13.336 28.9637 13.3466 29.2626C13.3571 29.562 13.3902 29.872 13.4457 30.1926H8.44656C8.4249 29.872 8.40017 29.562 8.3724 29.2626C8.34462 28.9637 8.33073 28.654 8.33073 28.3334C8.33073 23.6029 9.92573 19.6423 13.1157 16.4517C16.3063 13.2617 20.2668 11.6667 24.9974 11.6667ZM19.8441 49.8076H26.8374C28.6152 51.5515 30.581 53.4392 32.7349 55.4709C34.8888 57.5031 37.3096 59.7351 39.9974 62.1667C42.6852 59.7351 45.106 57.5031 47.2599 55.4709C49.4138 53.4392 51.3796 51.5515 53.1574 49.8076H60.2024C58.1552 51.9915 55.778 54.3698 53.0707 56.9426C50.3635 59.5148 47.2321 62.4056 43.6766 65.6151L39.9974 68.9226L36.3182 65.6151C32.7627 62.4056 29.6396 59.5148 26.9491 56.9426C24.2591 54.3698 21.8907 51.9915 19.8441 49.8076ZM36.8307 52.5001C37.3607 52.5001 37.8149 52.3451 38.1932 52.0351C38.571 51.7256 38.8496 51.3229 39.0291 50.8267L44.0741 35.6409L47.7599 41.1601C48.0377 41.5617 48.3946 41.8856 48.8307 42.1317C49.2668 42.3773 49.7413 42.5001 50.2541 42.5001H75.8307V37.5001H51.3691L45.4266 28.6476C45.1788 28.2759 44.8552 27.997 44.4557 27.8109C44.0563 27.6254 43.6257 27.5326 43.1641 27.5326C42.6341 27.5326 42.1746 27.6873 41.7857 27.9967C41.3968 28.3067 41.1235 28.7095 40.9657 29.2051L35.9207 44.3717L32.2216 38.8401C31.9438 38.4384 31.5871 38.1145 31.1516 37.8684C30.7155 37.6229 30.241 37.5001 29.7282 37.5001H4.16406V42.5001H28.5616L34.5357 51.3842C34.7835 51.7776 35.1127 52.062 35.5232 52.2376C35.9332 52.4126 36.3691 52.5001 36.8307 52.5001Z" fill="#870064"/>
</g>
</svg>
