<svg width="82" height="82" viewBox="0 0 82 82" fill="none" xmlns="http://www.w3.org/2000/svg">
<path d="M49.9633 58.1418C46.7255 60.2269 43.0165 61.6431 39.0314 62.197V64.7268C39.0314 66.8051 37.331 68.5055 35.2527 68.5055C33.1744 68.5055 31.474 66.8051 31.474 64.7268V62.197C26.7855 61.5454 22.4795 59.6999 18.8728 56.9765L17.0833 58.7659C15.6137 60.2356 13.2089 60.2356 11.7395 58.7659C10.2698 57.2963 10.2698 54.8915 11.7395 53.4221L13.5289 51.6326C10.8051 48.0262 8.96027 43.7198 8.30852 39.0314H5.77873C3.70043 39.0314 2 37.331 2 35.2527C2 33.1744 3.70043 31.474 5.77873 31.474H8.30852C8.96012 26.7855 10.8057 22.4795 13.5291 18.8728L11.7396 17.0833C10.27 15.6137 10.27 13.2089 11.7396 11.7395C13.2092 10.2698 15.614 10.2698 17.0835 11.7395L18.8729 13.5289C22.4792 10.8051 26.7858 8.96012 31.4741 8.30837V5.77873C31.4741 3.70043 33.1745 2 35.2528 2C37.3311 2 39.0316 3.70043 39.0316 5.77873V8.30852C43.7201 8.96012 48.026 10.8057 51.6327 13.5289L53.4222 11.7395C54.8918 10.2698 57.2966 10.2698 58.7661 11.7395C60.2357 13.2091 60.2357 15.6139 58.7661 17.0833L56.9766 18.8728C59.7005 22.4791 61.5454 26.7856 62.1972 31.474H64.7268C66.8051 31.474 68.5055 33.1744 68.5055 35.2527C68.5055 37.331 66.8051 39.0314 64.7268 39.0314H62.1972C61.6435 43.0156 60.2274 46.7233 58.1433 49.9607" stroke="#870064" stroke-width="3" stroke-miterlimit="2.6131" stroke-linecap="round" stroke-linejoin="round"/>
<path d="M34.1066 43.4118C36.4676 41.0508 36.4676 37.2227 34.1066 34.8616C31.7455 32.5005 27.9174 32.5005 25.5564 34.8616C23.1953 37.2227 23.1953 41.0507 25.5564 43.4118C27.9174 45.7729 31.7455 45.7729 34.1066 43.4118Z" stroke="#870064" stroke-width="3" stroke-miterlimit="2.6131" stroke-linecap="round" stroke-linejoin="round"/>
<path d="M45.0217 31.1554C46.1199 29.6318 45.775 27.5064 44.2514 26.4082C42.7277 25.31 40.6023 25.6548 39.5041 27.1785C38.4059 28.7021 38.7508 30.8275 40.2744 31.9257C41.798 33.0239 43.9235 32.6791 45.0217 31.1554Z" stroke="#870064" stroke-width="3" stroke-miterlimit="2.6131" stroke-linecap="round" stroke-linejoin="round"/>
<path d="M47.2578 37.1833H47.2589" stroke="#870064" stroke-width="3" stroke-miterlimit="22.9256" stroke-linecap="round" stroke-linejoin="round"/>
<path d="M33.9375 24.6865H33.9386" stroke="#870064" stroke-width="3" stroke-miterlimit="22.9256" stroke-linecap="round" stroke-linejoin="round"/>
<path d="M43.2969 42.9331H43.298" stroke="#870064" stroke-width="3" stroke-miterlimit="22.9256" stroke-linecap="round" stroke-linejoin="round"/>
<path d="M58.7969 69.1965C64.4062 64.4874 69.9354 56.1744 62.763 55.2046C55.5907 56.1744 61.1199 64.4874 66.7292 69.1963" stroke="#870064" stroke-width="3" stroke-miterlimit="2.6131" stroke-linecap="round" stroke-linejoin="round"/>
<path d="M72.3804 72.381C77.6928 67.0685 77.6928 58.4554 72.3804 53.143C67.068 47.8306 58.4548 47.8306 53.1424 53.143C47.83 58.4554 47.83 67.0685 53.1424 72.381C58.4548 77.6934 67.068 77.6934 72.3804 72.381Z" stroke="#870064" stroke-width="3" stroke-miterlimit="2.6131" stroke-linecap="round" stroke-linejoin="round"/>
<path d="M27.5957 17.9764C29.9364 16.9374 32.5269 16.3591 35.2529 16.3591C45.6875 16.3591 54.1465 24.818 54.1465 35.2526C54.1465 45.6872 45.6876 54.1463 35.2529 54.1463C24.8183 54.1463 16.3594 45.6874 16.3594 35.2526C16.3594 32.5267 16.9377 29.936 17.9767 27.5954" stroke="#870064" stroke-width="3" stroke-miterlimit="2.6131" stroke-linecap="round" stroke-linejoin="round"/>
<path d="M21.8906 21.8921L21.8916 21.893" stroke="#870064" stroke-width="3" stroke-miterlimit="22.9256" stroke-linecap="round" stroke-linejoin="round"/>
</svg>
