<svg width="80" height="80" viewBox="0 0 80 80" fill="none" xmlns="http://www.w3.org/2000/svg">
<mask id="mask0_696_2448" style="mask-type:alpha" maskUnits="userSpaceOnUse" x="0" y="0" width="80" height="80">
<rect width="80" height="80" fill="#D9D9D9"/>
</mask>
<g mask="url(#mask0_696_2448)">
<path d="M74.9875 56.3909L60.3075 51.5384L61.8975 46.7567L76.5767 51.6601L74.9875 56.3909ZM75.8333 42.5001H61.795V37.5001H75.8333V42.5001ZM76.4933 28.2051L61.795 33.1925L60.2758 28.3784L75.0067 23.5067L76.4933 28.2051ZM23.76 45.4809C21.3344 45.4809 19.2681 44.6298 17.5608 42.9276C15.8536 41.2248 15 39.1609 15 36.7359C15 35.5231 15.2344 34.3926 15.7033 33.3442C16.1722 32.2959 16.8053 31.3756 17.6025 30.5834L25 23.1025V7.94922H30V23.8142C30 24.2587 29.9028 24.6892 29.7083 25.1059C29.5139 25.5226 29.2778 25.8976 29 26.2309L21.0833 34.1476C20.75 34.4809 20.4861 34.8698 20.2917 35.3142C20.0972 35.7587 20 36.2309 20 36.7309C20 37.7309 20.375 38.6059 21.125 39.3559C21.875 40.1059 22.75 40.4809 23.75 40.4809C24.4167 40.4809 24.9497 40.3698 25.3492 40.1475C25.7486 39.9253 26.2711 39.5364 26.9167 38.9809C28.16 37.9809 29.3756 37.2309 30.5633 36.7309C31.7506 36.2309 32.9517 35.9809 34.1667 35.9809C35.3889 35.9809 36.5972 36.2309 37.7917 36.7309C38.9861 37.2309 40.1944 37.9809 41.4167 38.9809C42.0833 39.5364 42.6111 39.9253 43 40.1475C43.3889 40.3698 43.9167 40.4809 44.5833 40.4809C45.6389 40.4809 46.5278 40.1059 47.25 39.3559C47.9722 38.6059 48.3333 37.7309 48.3333 36.7309C48.3333 36.2309 48.2361 35.7448 48.0417 35.2726C47.8472 34.8003 47.5833 34.3976 47.25 34.0642L39.3333 26.1476C39.0556 25.8142 38.8194 25.4531 38.625 25.0642C38.4306 24.6753 38.3333 24.2587 38.3333 23.8142V7.94922H43.3333V23.0192L50.8142 30.5001C51.6303 31.2951 52.2542 32.2284 52.6858 33.3C53.1175 34.3717 53.3333 35.5134 53.3333 36.7251C53.3333 39.1478 52.4933 41.2128 50.8133 42.9201C49.1333 44.6273 47.0567 45.4809 44.5833 45.4809C43.0278 45.4809 41.7767 45.1923 40.83 44.6151C39.8833 44.0384 39.0425 43.4273 38.3075 42.7817C37.3675 42.0301 36.5706 41.542 35.9167 41.3176C35.2628 41.0931 34.6794 40.9809 34.1667 40.9809C33.5383 40.9809 32.8803 41.1528 32.1925 41.4967C31.5042 41.8406 30.8097 42.2689 30.1092 42.7817C29.3742 43.4273 28.5286 44.0384 27.5725 44.6151C26.6164 45.1923 25.3456 45.4809 23.76 45.4809ZM38.3333 72.0509V56.6984C38.3333 56.2467 38.4306 55.8089 38.625 55.3851C38.8194 54.9617 39.0556 54.5939 39.3333 54.2817L47.25 46.3651C47.5833 46.0317 47.8472 45.6428 48.0417 45.1984C48.2361 44.7539 48.3333 44.2817 48.3333 43.7817C48.3333 43.3334 48.2628 42.9189 48.1217 42.5384C47.9806 42.1578 47.7861 41.8117 47.5383 41.5L51.1342 37.9042C51.8225 38.6776 52.3611 39.5695 52.75 40.58C53.1389 41.5906 53.3333 42.6578 53.3333 43.7817C53.3333 44.9701 53.1117 46.0789 52.6683 47.1084C52.225 48.1378 51.6069 49.0503 50.8142 49.8459L43.3333 57.3267V72.0509H38.3333ZM25 72.0509V57.3267L17.6025 49.8459C16.8053 49.0503 16.1722 48.1378 15.7033 47.1084C15.2344 46.0789 15 44.9701 15 43.7817C15 42.6578 15.2083 41.5906 15.625 40.58C16.0417 39.5695 16.5942 38.6881 17.2825 37.9359L20.8783 41.5C20.5961 41.8117 20.3792 42.1537 20.2275 42.5259C20.0758 42.8981 20 43.3167 20 43.7817C20 44.2817 20.0972 44.7539 20.2917 45.1984C20.4861 45.6428 20.75 46.0317 21.0833 46.3651L29 54.2817C29.2778 54.6151 29.5139 54.9901 29.7083 55.4067C29.9028 55.8234 30 56.2539 30 56.6984V72.0509H25Z" fill="#870064"/>
</g>
</svg>
