<svg width="80" height="80" viewBox="0 0 80 80" fill="none" xmlns="http://www.w3.org/2000/svg">
<mask id="mask0_696_2454" style="mask-type:alpha" maskUnits="userSpaceOnUse" x="0" y="0" width="80" height="80">
<rect width="80" height="80" fill="#D9D9D9"/>
</mask>
<g mask="url(#mask0_696_2454)">
<path d="M32.5102 68.6533C29.848 68.6533 27.5585 67.7314 25.6419 65.8875C23.7252 64.0436 22.6708 61.8075 22.4785 59.1791C19.423 58.7136 16.8802 57.3164 14.8502 54.9875C12.8202 52.658 11.8052 49.9272 11.8052 46.795C11.8052 45.7011 11.9474 44.6202 12.2319 43.5525C12.5158 42.4847 12.9419 41.4822 13.5102 40.545C12.8352 39.5661 12.3288 38.5075 11.991 37.3691C11.6533 36.2302 11.4844 35.0347 11.4844 33.7825C11.4844 30.5847 12.5369 27.8194 14.6419 25.4866C16.7463 23.1539 19.3522 21.7972 22.4594 21.4166C22.4377 21.3311 22.4269 21.2455 22.4269 21.16V20.8716C22.5297 18.1877 23.5563 15.9186 25.5069 14.0641C27.458 12.2097 29.7924 11.2825 32.5102 11.2825C34.0402 11.2825 35.4035 11.5816 36.6002 12.18C37.7969 12.7777 38.9335 13.6239 40.0102 14.7183C41.0741 13.6239 42.2024 12.7777 43.3952 12.18C44.5874 11.5816 45.9591 11.2825 47.5102 11.2825C50.198 11.2825 52.511 12.2064 54.4494 14.0541C56.3872 15.9025 57.4074 18.158 57.5102 20.8208V21.1091C57.5102 21.1947 57.4994 21.2802 57.4777 21.3658C60.5849 21.7458 63.2047 23.1058 65.3369 25.4458C67.4697 27.7852 68.536 30.5641 68.536 33.7825C68.536 35.0347 68.3619 36.2302 68.0135 37.3691C67.6652 38.5075 67.1533 39.5661 66.4777 40.545C67.046 41.4811 67.4777 42.483 67.7727 43.5508C68.0677 44.6191 68.2152 45.7005 68.2152 46.795C68.2152 49.9827 67.1916 52.7328 65.1444 55.045C63.0977 57.3566 60.5358 58.7347 57.4585 59.1791C57.2663 61.8075 56.2258 64.0436 54.3369 65.8875C52.448 67.7314 50.1724 68.6533 47.5102 68.6533C45.9719 68.6533 44.6033 68.3628 43.4044 67.7816C42.2055 67.2005 41.0741 66.3522 40.0102 65.2366C38.9119 66.3522 37.7666 67.2005 36.5744 67.7816C35.3822 68.3628 34.0274 68.6533 32.5102 68.6533ZM42.5102 21.2825V58.6541C42.5102 60.0541 42.9949 61.2375 43.9644 62.2041C44.9338 63.1708 46.1202 63.6541 47.5235 63.6541C48.8608 63.6541 50.0069 63.1561 50.9619 62.16C51.9174 61.1644 52.4335 60.0041 52.5102 58.6791C51.1085 58.3847 49.8147 57.8516 48.6285 57.08C47.443 56.3089 46.4185 55.3205 45.5552 54.115C45.128 53.53 44.9669 52.9069 45.0719 52.2458C45.1769 51.5847 45.5238 51.0477 46.1127 50.635C46.6983 50.2072 47.3255 50.0461 47.9944 50.1516C48.6638 50.2566 49.2074 50.6036 49.6252 51.1925C50.3147 52.1952 51.1922 52.963 52.2577 53.4958C53.3233 54.0286 54.4758 54.295 55.7152 54.295C57.8052 54.295 59.5777 53.5675 61.0327 52.1125C62.4877 50.6569 63.2152 48.8844 63.2152 46.795C63.2152 46.3744 63.1747 45.9541 63.0935 45.5341C63.0124 45.1141 62.8841 44.7011 62.7085 44.295C61.7641 44.9361 60.7224 45.4275 59.5835 45.7691C58.4447 46.1108 57.2622 46.2816 56.036 46.2816C55.3277 46.2816 54.7338 46.0422 54.2544 45.5633C53.7755 45.0839 53.536 44.4897 53.536 43.7808C53.536 43.0725 53.7755 42.4789 54.2544 42C54.7338 41.5216 55.3277 41.2825 56.036 41.2825C58.1255 41.2825 59.898 40.5547 61.3535 39.0991C62.8085 37.6441 63.536 35.8719 63.536 33.7825C63.536 31.7258 62.8191 29.9808 61.3852 28.5475C59.9513 27.1141 58.211 26.3589 56.1644 26.2816C55.5955 27.3033 54.8463 28.1944 53.9169 28.955C52.9874 29.7155 51.9502 30.318 50.8052 30.7625C50.1513 31.0102 49.513 30.9897 48.8902 30.7008C48.2674 30.4119 47.8524 29.9369 47.6452 29.2758C47.4313 28.6219 47.4569 27.9797 47.7219 27.3491C47.9869 26.7191 48.4569 26.2972 49.1319 26.0833C50.1363 25.7416 50.9505 25.1347 51.5744 24.2625C52.1983 23.3908 52.5102 22.3919 52.5102 21.2658C52.5102 19.8747 52.0266 18.6964 51.0594 17.7308C50.0927 16.7647 48.9091 16.2816 47.5085 16.2816C46.108 16.2816 44.9247 16.765 43.9585 17.7316C42.993 18.6983 42.5102 19.8819 42.5102 21.2825ZM37.5102 58.6541V21.2825C37.5102 19.8819 37.0266 18.6983 36.0594 17.7316C35.0927 16.765 33.9091 16.2816 32.5085 16.2816C31.108 16.2816 29.9247 16.765 28.9585 17.7316C27.993 18.6983 27.5102 19.8819 27.5102 21.2825C27.5102 22.3636 27.8135 23.3486 28.4202 24.2375C29.0274 25.1264 29.833 25.7416 30.8369 26.0833C31.4908 26.2972 31.9694 26.7139 32.2727 27.3333C32.576 27.9527 32.6227 28.5919 32.4127 29.2508C32.161 29.9091 31.7202 30.3822 31.0902 30.67C30.4602 30.9583 29.8074 30.9786 29.1319 30.7308C27.9869 30.2864 26.9497 29.6891 26.0202 28.9391C25.0908 28.1891 24.3416 27.3033 23.7727 26.2816C21.7816 26.3589 20.0691 27.125 18.6352 28.58C17.2013 30.035 16.4844 31.7725 16.4844 33.7925C16.4844 35.8752 17.2119 37.6441 18.6669 39.0991C20.1224 40.5547 21.8949 41.2825 23.9844 41.2825C24.6927 41.2825 25.2866 41.5219 25.766 42.0008C26.2449 42.4802 26.4844 43.0744 26.4844 43.7833C26.4844 44.4916 26.2449 45.0852 25.766 45.5641C25.2866 46.0425 24.6927 46.2816 23.9844 46.2816C22.7583 46.2816 21.5758 46.1108 20.4369 45.7691C19.298 45.4275 18.2563 44.9361 17.3119 44.295C17.1363 44.7011 17.008 45.1141 16.9269 45.5341C16.8458 45.9541 16.8052 46.3744 16.8052 46.795C16.8052 48.8844 17.5327 50.6569 18.9877 52.1125C20.4427 53.5675 22.2152 54.295 24.3052 54.295C25.5508 54.295 26.703 54.0269 27.7619 53.4908C28.8208 52.9541 29.6985 52.188 30.3952 51.1925C30.813 50.6036 31.3566 50.2566 32.026 50.1516C32.6949 50.0461 33.3222 50.2016 33.9077 50.6183C34.4933 51.035 34.8394 51.5755 34.946 52.24C35.0527 52.905 34.8924 53.53 34.4652 54.115C33.5808 55.3205 32.5369 56.3175 31.3335 57.1058C30.1308 57.8941 28.8285 58.4358 27.4269 58.7308C27.5035 60.0558 28.0335 61.2075 29.0169 62.1858C29.9997 63.1647 31.1597 63.6541 32.4969 63.6541C33.9002 63.6541 35.0866 63.1708 36.056 62.2041C37.0255 61.2375 37.5102 60.0541 37.5102 58.6541Z" fill="#870064"/>
</g>
</svg>
