<svg width="46" height="46" viewBox="0 0 46 46" fill="none" xmlns="http://www.w3.org/2000/svg">
<path d="M33 20.5V13H25.5V8H33V0.5H38V8H45.5V13H38V20.5H33ZM42.875 45.5C37.6667 45.5 32.5208 44.365 27.4375 42.095C22.3542 39.825 17.7292 36.6058 13.5625 32.4375C9.39583 28.2692 6.1775 23.6442 3.9075 18.5625C1.6375 13.4808 0.501667 8.335 0.5 3.125C0.5 2.375 0.75 1.75 1.25 1.25C1.75 0.75 2.375 0.5 3.125 0.5H13.25C13.8333 0.5 14.3542 0.698333 14.8125 1.095C15.2708 1.49167 15.5417 1.96 15.625 2.5L17.25 11.25C17.3333 11.9167 17.3125 12.4792 17.1875 12.9375C17.0625 13.3958 16.8333 13.7917 16.5 14.125L10.4375 20.25C11.2708 21.7917 12.26 23.2808 13.405 24.7175C14.55 26.1542 15.8108 27.54 17.1875 28.875C18.4792 30.1667 19.8333 31.365 21.25 32.47C22.6667 33.575 24.1667 34.585 25.75 35.5L31.625 29.625C32 29.25 32.49 28.9692 33.095 28.7825C33.7 28.5958 34.2933 28.5433 34.875 28.625L43.5 30.375C44.0833 30.5417 44.5625 30.8442 44.9375 31.2825C45.3125 31.7208 45.5 32.21 45.5 32.75V42.875C45.5 43.625 45.25 44.25 44.75 44.75C44.25 45.25 43.625 45.5 42.875 45.5Z" fill="#870064"/>
</svg>
